<?xml version="1.0" encoding="UTF-8"?>
<svg id="icon" xmlns="http://www.w3.org/2000/svg" version="1.1" viewBox="0 0 546.7 512">
  <!-- Generator: Adobe Illustrator 29.1.0, SVG Export Plug-In . SVG Version: 2.1.0 Build 142)  -->
  <path d="M290.2,506.7s-84.7,15.8-218.6-6.9c-116.9-19.8-64.1-37.7-26.2-44.9s111-27,253.1-20.4c128,5.9,218.6,15.8,243.5,30.3,19.7,11.5-25.5,30.3-101.2,34.7-75.6,4.4-82.2-2.4-150.7,7.2Z" fill="#eadabf"/>
  <g>
    <path d="M173.1,459.1s-3.5-.9-6.3-5.3c-2.8-4.4-7.1-13.9-6.8-16.1.3-2.2-2.4-17.2-5.4-22.2-.5-.8-6-8.6-6-8.6,0,0,9.1,4.4,12,9s3.9,14.7,7.4,21c3.5,6.3,8.4,17.5,5.1,22.2Z" fill="#ce9974"/>
    <path d="M178.5,485.7s3-50.6-5.3-71.3c-8.3-20.7-16.1-26.6-16.1-26.6,0,0,11.5,36.3,10.9,63.2-.6,26.9,2.6,34.7,2.6,34.7,0,0,2.7,1.1,7.8,0Z" fill="#4e7652"/>
    <path d="M170.7,486.1s-3.9.3-9.2,0c0,0,.2-13.9-3.2-27.8-3.4-14-6.3-28.1-6.3-28.1,0,0,7.9,19.5,11.3,25.7,3.4,6.2,4.6,8.3,7.4,30.3Z" fill="#4e7652"/>
    <path d="M174.2,485.9s-.3.3,5,0c0,0,3.1-2.9,9.6-16.6,6.3-13.1,10.6-30.6,10.6-30.6,0,0-10.5,18.4-13.9,24.6-3.4,6.2-8.9,10.7-11.4,22.7Z" fill="#4e7652"/>
    <path d="M178.8,474.8s-2.4-3.1-2.2-9.2,2-18.3,3.5-20.3c1.5-2,7.7-18.9,8.1-25.7,0-1.2-.1-12.3-.1-12.3,0,0,5.1,10,4.9,16.5s-5.1,17.2-5.8,25.7c-.7,8.4-3,22.8-8.4,25.5Z" fill="#ce9974"/>
  </g>
  <g>
    <path d="M484.1,445.2s-3.5-.9-6.3-5.3c-2.8-4.4-7.1-13.9-6.8-16.1.3-2.2-2.4-17.2-5.4-22.2s-6-8.6-6-8.6c0,0,9.1,4.4,12,9s3.9,14.7,7.4,21c3.5,6.3,8.4,17.5,5.1,22.2Z" fill="#ce9974"/>
    <path d="M489.5,471.8s3-50.6-5.3-71.3c-8.3-20.7-16.1-26.6-16.1-26.6,0,0,11.5,36.3,10.9,63.2-.6,26.9,2.6,34.7,2.6,34.7,0,0,2.7,1.1,7.8,0Z" fill="#4e7652"/>
    <path d="M481.7,472.1s-3.9.3-9.2,0c0,0,.2-13.9-3.2-27.8-3.4-14-6.3-28.1-6.3-28.1,0,0,7.9,19.5,11.3,25.7s4.6,8.3,7.4,30.3Z" fill="#4e7652"/>
    <path d="M485.3,472s-.3.3,5,0c0,0,3.1-2.9,9.6-16.6,6.3-13.1,10.6-30.6,10.6-30.6,0,0-10.5,18.4-13.9,24.6s-8.9,10.7-11.4,22.7Z" fill="#4e7652"/>
    <path d="M489.9,460.9s-2.4-3.1-2.2-9.2,2-18.3,3.5-20.3c1.5-2,7.7-18.9,8.1-25.7,0-1.2-.1-12.3-.1-12.3,0,0,5.1,10,4.9,16.5-.2,6.5-5.1,17.2-5.8,25.7-.7,8.4-3,22.8-8.4,25.5Z" fill="#ce9974"/>
  </g>
  <g>
    <path d="M75.8,443.4s-2.5-2.9-2.6-9.1,1.2-18.4,2.6-20.5,6.9-19.2,7-26.1c0-1.2-.7-12.3-.7-12.3,0,0,5.5,9.8,5.6,16.2,0,6.5-4.3,17.4-4.6,25.9-.3,8.5-2,22.9-7.2,25.9Z" fill="#ce9974"/>
    <path d="M77.2,439.3s7.1-32.4,24-45.8c0,0-10.9,29.2-15.4,46.3-4.5,17.1-11.4,31.2-11.4,31.2l2.7-31.7Z" fill="#4e7652"/>
    <path d="M78.2,473.6s3-55.4-5.3-78.1c-8.3-22.7-16.1-29.2-16.1-29.2,0,0,11.5,39.8,10.9,69.2-.6,29.4,2.6,38,2.6,38,0,0,2.7,1.2,7.8,0Z" fill="#4e7652"/>
    <path d="M73.8,474s-3.9.3-9.2,0c0,0,.2-15.2-3.2-30.5s-6.3-30.8-6.3-30.8c0,0,7.9,21.3,11.3,28.1,3.4,6.8,4.6,9.1,7.4,33.2Z" fill="#4e7652"/>
    <path d="M74,473.8s-.3.3,5,0c0,0,3.1-3.2,9.6-18.2,6.3-14.3,10.6-33.5,10.6-33.5,0,0-10.5,20.1-13.9,26.9-3.4,6.8-8.9,11.7-11.4,24.8Z" fill="#4e7652"/>
    <path d="M73,451.4s-3.3-2-5.4-7.8c-2.1-5.8-4.9-17.8-4.2-20.2.7-2.4.3-20.4-1.8-26.9-.4-1.1-4.6-11.4-4.6-11.4,0,0,8.4,7.5,10.6,13.5,2.2,6.1,1.6,17.9,4,26s5.6,22.3,1.6,26.8Z" fill="#ce9974"/>
  </g>
  <path d="M83.9,152.8s16.6,4.7,61.6-19.6c44.9-24.3,71.6-35,81.9-44.4s20.6-19.4,23-22.5c0,0-19.5,2-57.4,15.5-37.9,13.5-83.7,41.1-109.1,70.9Z" fill="#ce9974"/>
  <path d="M358.2,423s-31.3-32-39.4-44.5c-27.7-42.6-50.7-91.7-44.4-117,6.3-25.3,44.7-58,76.4-42.8,40.6,19.4,22.6,79.2,22.6,79.2-4.8,27-4,40-4,40,0,0,21.6,47.1,25.2,53.4,0,0-19.5,27.2-36.4,31.7Z" fill="#202e42"/>
  <path d="M386.7,373.7s-14.7,27-45.4,32.4l47.8,59.1s28.3,6.2,48.6-5.6c0,0-14.6-39.8-22.5-52.8-6.4-10.5-15.6-25-28.6-33Z" fill="#f4f0e9"/>
  <path d="M325.5,334.8s-29.6,34.5-41,56.4c-6.2,11.9-12,26.2-27.1,27.6-15.2,1.4-23.9.5-27.3-9.6-16.4-47.9,35.6-117,37-124.6,1.5-7.5,61.8-18.6,58.5,50.1Z" fill="#202e42"/>
  <path d="M284.5,391.3s4.8,33.3,4.5,56c-.3,22.6,1,32,1,32,0,0-21.6,7.1-44.4,1.3,0,0-15.6-48.9-18.7-83.3,0,0,28.3,6.3,57.5-5.9Z" fill="#f4f0e9"/>
  <path d="M214.9,190.5c-4.3-1.9-10-.6-13.5,2.6-5.3,4.9-9.9,13-12.9,28.7-5.1,27.1-12.1,76.8,8.6,79.6,26.9,3.7,35.4-16.5,35.6-70.2.1-27.2-7.9-36.2-17.9-40.7Z" fill="#ce9974"/>
  <path d="M217.1,171.2c-31.8-9.4-37.7,75.9-37.7,75.9,0,0,28.2,17,62.3,6.5,0,0,7.2-73-24.6-82.4Z" fill="#f4f0e9"/>
  <path d="M223.3,290.8s-13.9,24-48.2,44.5c-34.2,20.5-44.1,27.3-54.2,21.2s-7.6-20.5,13.7-37.9c21.3-17.5,50.3-46.3,58.9-48.2,8.6-1.9,41.7-6.1,29.8,20.4Z" fill="#ce9974"/>
  <path d="M193.3,202.8s2.1,28.8,26.1,50.6c14.8,13.5,30.1,31.6,50.6,42.3,0,0,34.3-2.8,65.1-34,0,0,31.5-28.1,27.3-35.6-9.9-17.4-20.2-34.6-45.4-57.6-24.8-22.6-64.2-51.2-99.7-18.5-26.7,24.6-24,52.7-24,52.7Z" fill="#f4f0e9"/>
  <path d="M303.5,252.7s21,12.9,33.6,0c11.8-12,14.5-41.1,14.5-41.1l-11.7-6.9s-5.4,33.6-14.6,36.8c-10.9,3.9-18-6.1-18-6.1l-3.8,17.2Z" fill="#202e42"/>
  <path d="M271.5,171.7c-8.4,2.4-18.7,16.1-19.7,42.8s-9.6,78.4,20,82.9c21.8,3.3,41.7-34,35.2-96.7-3.3-32.1-26.2-31.7-35.5-29Z" fill="#ce9974"/>
  <path d="M276.5,156.7c-33-3.3-28.8,78.9-28.8,78.9,0,0,23,10.7,62.6,3.7,0,0,6-78.6-33.8-82.5Z" fill="#f4f0e9"/>
  <path d="M309.4,241.7s0,0,0,0c-.5,0-.9-.5-.9-1,0-.2.9-16.4,1.7-35.6,0-.4,0-11,6-14.4.5-.3,1.1-.1,1.3.4s.1,1.1-.4,1.3c-5,2.9-5,12.7-5,12.8-.8,19.3-1.7,35.5-1.7,35.6,0,.5-.5.9-1,.9Z" fill="#202e42"/>
  <path d="M247.8,236.5c-.5,0-.9-.4-1-.9,0-.3-1.8-27.7,1.6-45.2.1-.5.6-.9,1.1-.8.5.1.9.6.8,1.1-3.3,17.3-1.6,44.4-1.6,44.7,0,.5-.4,1-.9,1,0,0,0,0,0,0Z" fill="#202e42"/>
  <path d="M221.9,256.6c-.2,0-.5,0-.7-.3-.2-.1-15.3-14.5-20.8-33-.2-.5.1-1.1.7-1.2.5-.2,1.1.1,1.2.7,5.4,18,20.1,32,20.3,32.2.4.4.4,1,0,1.4-.2.2-.5.3-.7.3Z" fill="#202e42"/>
  <path d="M240.4,148c-6.2,20.8-23,41-30.5,46-7.1,4.7-9.7-4.1-10.7-8.7-1.2-5.4,4.8-17.4,17-29.5,20.8-20.7,26.3-14.6,24.2-7.8Z" fill="#ce9974"/>
  <g>
    <g>
      <path d="M139.9,65h0c20.7-13.3,48.2-7.3,61.5,13.4l11.3,24.4c19.8,43.9-13.9,61.4-13.9,61.4-21.2,13.6-42.9,4-56.2-16.7l-14.3-22.3c-13.3-20.7-9.2-47,11.5-60.3Z" fill="#ce9974"/>
      <path d="M202.2,74.5s-25.1-2.7-23.3,13.2c1.9,15.9,26.7,33.4,39.3,32.1,0,0,6.9-18-16-45.3Z" fill="#202e42"/>
      <path d="M195.7,100.1c3-2.5,12.7-4.6,17.9,7,5.2,11.6-9.5,18.3-9.5,18.3l-16.3-10.1c3.2-11.2,4.9-12.8,7.9-15.2Z" fill="#ce9974"/>
      <path d="M197.6,116.1c-.4,0-.8-.3-.9-.7-1.7-5,1-8.7,2.7-10,.4-.3,1-.2,1.4.2.3.4.2,1-.2,1.4h0c-.2.1-3.7,2.9-2,7.8.2.5-.1,1.1-.6,1.2-.1,0-.2,0-.3,0Z" fill="#202e42"/>
      <path d="M161.7,146.1c-.4,0-.7-.2-.9-.5-.6-1.2-1-3.8,1.3-5.2,2.5-1.5,5.1.5,5.2.6.4.3.5,1,.1,1.4-.3.4-.9.5-1.4.1,0,0-1.7-1.3-2.9-.5-1.4.9-.7,2.5-.6,2.7.2.5,0,1.1-.5,1.3-.1,0-.3,0-.4,0Z" fill="#202e42"/>
      <path d="M168,155.6c-1.4,0-2.3-.2-2.4-.2-.5-.1-.8-.7-.7-1.2.1-.5.7-.8,1.2-.7h0c.3,0,8.7,2,11.6-8,.1-.5.7-.8,1.2-.7.5.2.8.7.7,1.2-2.4,8.3-8.3,9.5-11.6,9.5Z" fill="#202e42"/>
      <ellipse cx="150" cy="141.8" rx="3" ry="3.3" transform="translate(-45.3 75.2) rotate(-24.6)" fill="#202e42"/>
      <ellipse cx="170" cy="129" rx="3" ry="3.3" transform="translate(-38.3 82.3) rotate(-24.6)" fill="#202e42"/>
    </g>
    <path d="M183.8,165.7s10,9.6,17.2,16.9c0,0,7-.7,20.4-14.9s14.5-20.9,14.5-20.9c0,0-17.5-19.5-23.8-26.6l-28.3,45.5Z" fill="#ce9974"/>
    <path d="M188.6,170.1c-.4,0-.8-.3-.9-.7-.2-.5.1-1.1.6-1.2.2,0,19.9-6.7,25.1-25.9.1-.5.7-.8,1.2-.7.5.1.8.7.7,1.2-5.4,20.2-26.1,27.2-26.3,27.3-.1,0-.2,0-.3,0Z" fill="#202e42"/>
    <path d="M185.7,109c-.2,0-.4,0-.6-.2-8.7-6.1-9.1-17-9.1-17.4,0-.5.4-1,.9-1,.6,0,1,.4,1,.9,0,.1.4,10.4,8.3,15.9.4.3.5.9.2,1.4-.2.3-.5.4-.8.4Z" fill="#202e42"/>
    <path d="M123.3,109.2c-4.4,33.7,9.5,24.5,9.5,24.5,7.4-3.4,16-17.4,16-17.4,0,0,7.2,1.7,17.8-4.4s19.4-23.7,19.4-23.7c-5-10.4-58.3-12.7-62.8,21.1Z" fill="#202e42"/>
  </g>
  <path d="M250.4,66.4s-36.9,17.3-59,28.1c-22.1,10.8-65.6,30.1-84.9,43.8-14.4,10.2-22.6,14.5-22.6,14.5,0,0,32-55.5,39.1-72.1,7-16.6,9-27.6,22.3-27.2,13.3.4,49.2,8.7,105.1,12.9Z" fill="#ce9974"/>
  <path d="M91.8,149.1c-.3,0-.6-.1-.8-.4-.3-.4-.2-1,.2-1.4.3-.2,29.4-21.4,73.2-41.4,43.6-20,73.1-34.6,73.4-34.8.5-.2,1.1,0,1.3.4.2.5,0,1.1-.4,1.3-.3.1-29.7,14.8-73.4,34.8-43.6,19.9-72.5,41-72.8,41.2-.2.1-.4.2-.6.2Z" fill="#f4f0e9"/>
  <path d="M305.8,357.2c-.4,0-.8-.3-.9-.7,0-.2-6.4-19-7.9-32.8l-10.3-8.1c-.4-.3-.5-.9-.2-1.4.3-.4.9-.5,1.4-.2l10.6,8.4c.2.2.3.4.4.7,1.4,13.7,7.8,32.6,7.9,32.8.2.5-.1,1.1-.6,1.2-.1,0-.2,0-.3,0Z" fill="#f4f0e9"/>
  <g>
    <path d="M151.2,310.9c4.7,6.4,12.6,17.7,10.2,28.7s-14.2,16.3-18.1,19c-3.9,2.7-7.7,6-12.7,1.3-5-4.7-16.7-27.3-16.7-27.3,0,0,4.8-10.8,9.2-13.5,10.8-6.6,28.1-8.3,28.1-8.3Z" fill="#ce9974"/>
    <path d="M101.8,309.6c1.4,2.3,3.1,4.3,5,6.2l37.1,35.4c1.3,1.2,3,1.8,4.7,1.7s2.7-.6,3.9-1.8c.7-.8,1.2-1.6,1.4-2.4.7-2.1,0-4.4-1.6-6l-36.4-35.4c-2.2-2.2-4.8-4-7.6-5.5,0,0-9,3.8-6.5,7.8Z" fill="#202e42"/>
    <g>
      <path d="M141.9,340.2s3.6,1.1,2.2,7.3c-1.4,6.2-4.1,8.8-5.4,11-1.3,2.2-7.9,3.5-9.6,0-2.1-4.5-6,2.4-9.4-4.5-2-4.1-4.8-.8-7.6-7.2-1.6-3.5-6.8-3.5-4-10.2,2.7-6.3,6.8-13.6,12.7-13.5,5.9,0,6,4.8,6,4.8,0,0,6.9-.8,8,5.8,0,0,5.7-.8,7.1,6.5Z" fill="#ce9974"/>
      <path d="M129.9,353.2c-.2,0-.4,0-.5-.2-.5-.3-.6-.9-.3-1.4,5.4-8.2,12.1-12.1,12.4-12.3.5-.3,1.1-.1,1.3.4.3.5.1,1.1-.4,1.3,0,0-6.6,3.9-11.7,11.7-.2.3-.5.4-.8.4Z" fill="#202e42"/>
      <path d="M122.3,346.7c-.2,0-.4,0-.5-.2-.5-.3-.6-.9-.3-1.3,5.3-8.2,12.5-12.2,12.8-12.4.5-.3,1.1,0,1.3.4.3.5,0,1.1-.4,1.3,0,0-7,3.9-12.1,11.7-.2.3-.5.4-.8.4Z" fill="#202e42"/>
      <path d="M114.8,340.5c-.2,0-.4,0-.5-.2-.5-.3-.6-.9-.3-1.3,5.4-8.2,12.1-11.9,12.4-12,.5-.3,1.1,0,1.3.4.3.5,0,1.1-.4,1.3,0,0-6.6,3.6-11.7,11.4-.2.3-.5.4-.8.4Z" fill="#202e42"/>
      <path d="M139.6,358.2c-.1,0-.3,0-.4-.1-.5-.2-.7-.8-.4-1.3,0,0,2-3.9,4.5-9.7.8-1.7.9-3.1.4-4.2-.6-1.3-2-1.7-2-1.8-.3-.1-.6-.4-.7-.7-1-5.4-6-5.7-6.2-5.7-.4,0-.8-.4-.9-.8-1.1-5.8-6.6-5.1-6.9-5-.3,0-.5,0-.7-.2-.2-.2-.3-.4-.4-.7,0-.2-.7-4.5-5-5.2-.5,0-.9-.6-.8-1.1,0-.5.6-.9,1.1-.8,4,.6,5.9,3.7,6.5,5.9,2.7,0,6.7,1.1,8,6,2.4.4,6,2.1,7.2,6.7.7.3,1.9,1.1,2.6,2.6.7,1.6.6,3.6-.4,5.8-2.6,5.8-4.5,9.7-4.6,9.8-.2.3-.5.5-.9.5Z" fill="#202e42"/>
    </g>
    <g>
      <path d="M146.9,318.2s-1.4,4.3-5.4,6.5c0,0-3,7-3.3,12.1-.3,5.1-7.8,5.1-9.8-2.4-1.9-7.5.8-14,3.9-18.4,0,0,13.3-2.5,14.6,2.2Z" fill="#ce9974"/>
      <path d="M134.5,341.4c-2.2,0-5.7-.9-7.6-6.6-1.2-3.6-.6-7.3.1-10.8.2-1,1.8-4.8,3.3-7.2.3-.5.9-.6,1.3-.3.5.3.6.9.3,1.3-1.4,2.2-2.9,5.8-3.1,6.5-.7,3.2-1.2,6.6-.2,9.7,1.2,3.6,3.3,5.4,6,5.2,2.7-.1,3.3-4.5,3.3-4.5,0,0,0-.1,0-.2,0-.3,1.9-6.2,2.6-8.4,0-.3.3-.5.6-.6.3-.1.6,0,.8,0,0,0,4.7,2.8,10,2.2.6,0,1,.3,1.1.9,0,.5-.3,1-.9,1.1-4.4.4-8.3-1.1-10.1-2-.8,2.5-2,6.5-2.2,7.2-.1.8-1,6-5.1,6.2-.1,0-.2,0-.4,0Z" fill="#202e42"/>
    </g>
  </g>
  <g>
    <path d="M333,454.3s-3.5-.9-6.3-5.3c-2.8-4.4-7.1-13.9-6.8-16.1.3-2.2-2.4-17.2-5.4-22.2-.5-.8-6-8.6-6-8.6,0,0,9.1,4.4,12,9s3.9,14.7,7.4,21c3.5,6.3,8.4,17.5,5.1,22.2Z" fill="#ce9974"/>
    <path d="M338.4,480.9s3-50.6-5.3-71.3c-8.3-20.7-16.1-26.6-16.1-26.6,0,0,11.5,36.3,10.9,63.2-.6,26.9,2.6,34.7,2.6,34.7,0,0,2.7,1.1,7.8,0Z" fill="#4e7652"/>
    <path d="M330.6,481.3s-3.9.3-9.2,0c0,0,.2-13.9-3.2-27.8-3.4-14-6.3-28.1-6.3-28.1,0,0,7.9,19.5,11.3,25.7,3.4,6.2,4.6,8.3,7.4,30.3Z" fill="#4e7652"/>
    <path d="M334.1,481.1s-.3.3,5,0c0,0,3.1-2.9,9.6-16.6,6.3-13.1,10.6-30.6,10.6-30.6,0,0-10.5,18.4-13.9,24.6-3.4,6.2-8.9,10.7-11.4,22.7Z" fill="#4e7652"/>
    <path d="M338.8,470s-2.4-3.1-2.2-9.2c.2-6.2,2-18.3,3.5-20.3,1.5-2,7.7-18.9,8.1-25.7,0-1.2-.1-12.3-.1-12.3,0,0,5.1,10,4.9,16.5s-5.1,17.2-5.8,25.7-3,22.8-8.4,25.5Z" fill="#ce9974"/>
  </g>
  <path d="M253.3,264.1s20.6-21.7,39-1.7c9.8,10.6,1.5,27.3-11.7,41.8-13.4,14.8-39.3,49-44.6,53.1-10.1,7.8-40.8,14.3-25-18.6,8.1-16.8,31.4-60.7,42.3-74.6Z" fill="#ce9974"/>
  <path d="M267.2,269c-.1,0-.2,0-.3,0-7.5-2.9-14.3-.3-14.4-.3-.5.2-1.1,0-1.3-.6-.2-.5,0-1.1.6-1.3.3-.1,7.6-2.9,15.8.3.5.2.8.8.6,1.3-.1.4-.5.6-.9.6Z" fill="#202e42"/>
  <path d="M200,278.2c-.1,0-.3,0-.4,0-7.4-3.2-14.3-.9-14.4-.9-.5.2-1.1-.1-1.2-.6-.2-.5.1-1.1.6-1.2.3-.1,7.7-2.5,15.8,1,.5.2.7.8.5,1.3-.2.4-.5.6-.9.6Z" fill="#202e42"/>
  <g>
    <path d="M213.4,332.8s-15.1,14.1-16.2,21.2c-1.1,7.1,13.6-4,13.6-4,0,0,8.1-12.5,2.6-17.2Z" fill="#ce9974"/>
    <g>
      <path d="M243.4,315c-8-8.2-25.1,7.4-30,17.8-3.2,7-8.3,18.1-10.8,25.6-4,11.6-1.3,26,1,26.6,6.2,1.6,5.3-21.3,5.3-21.3,0,0,1.6,17.2,3,20.9,1.4,3.6,4.6,5.2,6.2,2.3,1.6-2.9-1.4-15.5-.3-21.7,0,0,2.4,31.4,9.6,23.7,0,0,5.7,3.7,5.9-4.1.2-7.9.4-17.9.3-19.4,0,0,8.6-12.1,10.5-25.7.6-4.6,2.3-21.6-.7-24.6Z" fill="#ce9974"/>
      <path d="M227,388.2c-.4,0-.8-.3-.9-.7-.1-.4-2.6-10.2-1.7-21.3,0-.5.5-.9,1-.9.5,0,.9.5.9,1-.8,10.8,1.7,20.6,1.7,20.7.1.5-.2,1.1-.7,1.2,0,0-.2,0-.2,0Z" fill="#202e42"/>
    </g>
  </g>
  <path d="M288.2,150.1s-24.9-8.2-34.9,12.5c-6.4,13.3-2.9,27.8-2.9,27.8l-2.6,24.4s-13.2-15.4-11.9-36.1,7.8-30,17.5-35.1c9.6-5.1,19.9-5.1,19.9-5.1l14.9,11.6Z" fill="#202e42"/>
  <g>
    <path d="M270,139s1.3-11.2,41.4-41.2c40.1-29.9,56.1-32.1,56.1-32.1,0,0,8.5,31.2-38.9,62.7,0,0-38.7,24.3-58.5,10.5Z" fill="#202e42"/>
    <path d="M343.8,64.4s-3.6,0-7.9-3.8c-4.4-3.7-12.1-12.1-12.7-14.3s-9.1-16.6-13.9-20.8c-.8-.7-9-7-9-7,0,0,10.2,2.1,14.7,6s9.5,13.7,15.2,19.1c5.7,5.4,14.7,15.4,13.6,20.9Z" fill="#ce9974"/>
    <path d="M277.7,123s-3.6.3-8.3-3c-4.7-3.3-13.2-10.9-14-13.1s-10.7-15.6-15.8-19.4c-.9-.6-9.6-6.2-9.6-6.2,0,0,10.3,1.2,15.2,4.6,4.9,3.4,10.7,12.7,16.9,17.5,6.2,4.8,16.1,13.9,15.5,19.5Z" fill="#ce9974"/>
    <path d="M307.5,104.5s-3.5.6-8.5-2.1c-5-2.8-14.3-9.4-15.3-11.5s-12.2-14.4-17.7-17.7-10.2-5.1-10.2-5.1c0,0,10.4,0,15.6,3,5.2,2.9,12,11.5,18.7,15.7,6.7,4.2,17.5,12.2,17.4,17.8Z" fill="#ce9974"/>
    <path d="M340.5,165.7s-3.3,3.6-8.5,7.8c0,0-56.3-51.7-72.4-62.9-16.1-11.2-31.9-23-31.9-23,0,0,25.4,12.9,34.2,16.3,8.9,3.4,55.5,42,78.5,61.7Z" fill="#4e7652"/>
    <path d="M286.8,129.8s-2.7,1.2-6.9-.2-12-5.3-13-6.9-10.8-9.9-15.4-11.6c-.8-.3-8.5-2.5-8.5-2.5,0,0,8.2-1.8,12.6-.3,4.4,1.5,10.4,7.5,16,9.8,5.6,2.3,14.8,7,15.2,11.7Z" fill="#ce9974"/>
    <path d="M329,174.9s1.9-3.5,4-6.3c0,0-35.5-35.2-54-44-17.7-8.4-41.5-14.7-41.5-14.7,0,0,24.7,13.9,33.1,18.4s42.1,42.8,58.4,46.5Z" fill="#4e7652"/>
    <path d="M269.8,110.1s-33.4-24.7-40-50.9c0,0,27.7,27.4,44.9,41.3,17.2,13.9,68.6,63,68.6,63l-5.2,4.7-68.4-58Z" fill="#4e7652"/>
    <path d="M304.5,97.8s-20.1-29.4-42.5-35.9c0,0,22.7,24.7,34,39.9,11.4,15.2,51.9,60.9,51.9,60.9l4.2-4.3-47.7-60.6Z" fill="#4e7652"/>
    <path d="M336.9,163.9s1-1.6,3.4-7.8c0,0-32.2-35.5-45.9-50.7-13.1-14.5-32.8-29.3-32.8-29.3,0,0,17.6,22.2,23.6,29.6,6,7.4,38.1,48.6,51.8,58.2Z" fill="#4e7652"/>
    <path d="M364.3,150.5s3.9-3,8.6-7.7c0,0-45.9-61.1-55.4-78.2-9.5-17.1-19.7-34-19.7-34,0,0,10.4,26.5,12.8,35.7,2.5,9.2,36.3,59.4,53.7,84.2Z" fill="#4e7652"/>
    <path d="M382.8,131.5s-3.9.6-7.3,1.7c0,0-21.7-45-24-65.4-2.2-19.4-.4-44-.4-44,0,0,5.1,27.9,6.7,37.3,1.6,9.4,26.8,53.7,25,70.3Z" fill="#4e7652"/>
    <path d="M340.8,54.4s-12.4-39.6-35.1-54.4c0,0,16.9,35.2,24.4,55.9s37.2,85.4,37.2,85.4l6.1-3.4-32.6-83.5Z" fill="#4e7652"/>
    <path d="M369.8,135.4s-1.8.4-8.5.6c0,0-23.1-42-32.9-59.9-9.4-17.2-17-40.6-17-40.6,0,0,15.3,23.9,20.3,32,5,8.1,33.5,51.9,38.1,67.9Z" fill="#4e7652"/>
    <path d="M347.3,74.3s2-2.9,1.6-8.6c-.5-5.7-2.8-16.9-4.2-18.7-1.5-1.8-8.1-17.1-8.9-23.4-.1-1.1-.5-11.4-.5-11.4,0,0-4.2,9.5-3.7,15.5.5,6,5.6,15.7,6.6,23.5,1.1,7.8,3.9,20.9,9,23.2Z" fill="#ce9974"/>
    <path d="M342.9,93.9s-3.2-1.1-5.7-5.4c-2.5-4.3-6.3-13.6-5.9-15.6.3-2.1-1.9-16.6-4.5-21.5-.4-.8-5.4-8.4-5.4-8.4,0,0,8.4,4.6,11,9.2s3.3,14.2,6.4,20.4c3.1,6.1,7.4,17.1,4.2,21.4Z" fill="#ce9974"/>
    <path d="M284.3,112.6s.5-3.3-2.2-7.4c-2.7-4.2-9.1-11.6-11.1-12.2s-13.7-9.1-16.8-13.6c-.5-.8-5-8.5-5-8.5,0,0,.3,9.4,3.1,13.8,2.8,4.3,11,9.3,15,14.7,4,5.5,11.7,14.2,16.9,13.3Z" fill="#ce9974"/>
    <path d="M312.4,126.7s.8-2.9-1.1-6.9c-1.9-4-6.9-11.3-8.6-12.1s-11.3-9.5-13.6-13.9c-.4-.7-3.6-8.1-3.6-8.1,0,0-.7,8.4,1.4,12.6s8.8,9.4,11.8,14.7c3,5.3,9,13.8,13.7,13.6Z" fill="#ce9974"/>
    <path d="M329.1,108.9s-3.4-1-6.7-5.6c-3.3-4.7-8.7-14.7-8.7-17.1,0-2.3-4.7-18.3-8.2-23.7-.6-.9-6.9-9.1-6.9-9.1,0,0,9.3,4.6,12.7,9.6s5.7,15.6,9.9,22.3c4.2,6.6,10.4,18.6,7.9,23.6Z" fill="#ce9974"/>
    <path d="M321.5,94.9s-3.6,0-7.9-3.8c-4.4-3.7-12.1-12.1-12.7-14.3s-9.1-16.6-13.9-20.8c-.8-.7-9-7-9-7,0,0,10.2,2.1,14.7,6,4.5,3.9,9.5,13.7,15.2,19.1,5.7,5.4,14.7,15.4,13.6,20.9Z" fill="#ce9974"/>
    <path d="M328,105s-11.4-28.5-5.4-47.7c0,0,6.8,28.1,12.3,43.5,5.4,15.4,7.5,29.9,7.5,29.9l-14.4-25.7Z" fill="#4e7652"/>
    <path d="M337.6,118.7s-28.4-42.9-47.1-55.2c-18.7-12.3-28.1-12.8-28.1-12.8,0,0,30.6,23.2,46.4,45.5s22.9,26.9,22.9,26.9c0,0,2.6-.6,5.8-4.3Z" fill="#4e7652"/>
    <path d="M334.6,121.5s-2.7,2.4-6.9,5.1c0,0-8.2-11.5-19.2-21-11-9.5-21.7-19.4-21.7-19.4,0,0,17.7,11.5,24,14.7,6.3,3.2,8.4,4.2,23.8,20.6Z" fill="#4e7652"/>
    <path d="M321.5,105.1s-3.6.4-8.3-2.8c-4.8-3.1-13.5-10.5-14.3-12.7-.8-2.2-11.1-15.3-16.3-19-.9-.6-9.8-5.9-9.8-5.9,0,0,10.4.9,15.3,4.2,5,3.3,11,12.5,17.4,17.1,6.3,4.7,16.5,13.5,16,19.1Z" fill="#ce9974"/>
    <path d="M270,139s19.8,6.5,56-21c36.2-27.6,41.5-52.2,41.5-52.2,0,0,46.9,87.8,50.7,101s-49.6,57.8-64.3,52.3c-14.7-5.5-83.8-80-83.8-80Z" fill="#ce9974"/>
    <path d="M290.1,156.3c0,0,0,0-.1,0-.5,0-1-.4-1-1,0-.5.4-1,1-1,0,0,0,0,0,0,.6,0,13-.1,29.4-7.8,15.5-7.3,37.8-23,56.5-56.5.3-.5.9-.6,1.3-.4.5.3.6.9.4,1.3-19,34.1-41.7,50-57.5,57.4-16.5,7.7-28.7,7.9-30,7.9Z" fill="#f4f0e9"/>
    <path d="M304.2,171.6h0c-.5,0-1-.4-1-1,0-.5.4-1,1-1,.5,0,46.9-.7,82.1-58.7.3-.5.9-.6,1.3-.3s.6.9.3,1.3c-18.7,30.8-40.4,45.3-55.4,52.1-16.2,7.4-27.9,7.5-28.4,7.5Z" fill="#f4f0e9"/>
    <path d="M322.1,189.8c-.5,0-.9-.4-1-.9,0-.5.3-1,.9-1.1.4,0,45-5.8,75.6-55.6.3-.5.9-.6,1.3-.3.5.3.6.9.3,1.3-16.2,26.4-36.3,40.4-50.2,47.4-15.2,7.7-26.3,9-26.8,9.1,0,0,0,0-.1,0Z" fill="#f4f0e9"/>
    <path d="M339.5,205.6c-.5,0-.9-.3-1-.8-.1-.5.2-1,.8-1.1.4,0,44.8-9,67.8-52.5.3-.5.8-.7,1.3-.4.5.3.7.8.4,1.3-23.4,44.3-68.7,53.4-69.2,53.5,0,0-.1,0-.2,0Z" fill="#f4f0e9"/>
    <path d="M373.8,211.6c-.2,0-.5,0-.7-.2-25.9-23.2-71-74.2-71.4-74.7-.4-.4-.3-1,0-1.4.4-.4,1-.3,1.4,0,.5.5,45.5,51.4,71.3,74.6.4.4.4,1,0,1.4-.2.2-.5.3-.7.3Z" fill="#f4f0e9"/>
    <path d="M407.3,183.7c-.4,0-.7-.2-.9-.5-10.7-21.1-52.7-87.1-53.1-87.7-.3-.5-.2-1.1.3-1.3.5-.3,1.1-.2,1.3.3.4.7,42.5,66.7,53.2,87.9.2.5,0,1.1-.4,1.3-.1,0-.3.1-.4.1Z" fill="#f4f0e9"/>
    <path d="M392.3,198.7c-.3,0-.6-.1-.8-.4l-61.2-79.6c-.3-.4-.2-1,.2-1.4.4-.3,1-.2,1.4.2l61.2,79.6c.3.4.2,1-.2,1.4-.2.1-.4.2-.6.2Z" fill="#f4f0e9"/>
  </g>
  <path d="M112,307.3s2.1-26.7-18.9-46.2c-21.3-19.8-61.4-6.7-59,28.9,0,0,20.4-38.1,45.5-23.1,20.7,12.4,18.8,40.9,22.9,43.5,4.2,2.6,9.5.3,9.5-3.1Z" fill="#202e42"/>
  <path d="M265.6,489.5s0,0,0,0c-29.1-2.5-33.1-5.7-33.4-8.3-.3-3,5.5-4.8,7.3-5.3.5-.1,1.1.2,1.2.7.1.5-.2,1.1-.7,1.2-2.8.8-5.9,2.3-5.8,3.3,0,.6,1.9,4,31.6,6.5.5,0,.9.5.9,1.1,0,.5-.5.9-1,.9Z" fill="#202e42"/>
  <path d="M272.8,489.5c-.5,0-1-.4-1-1s.4-1,1-1,10.7,0,20.6-2.8c.5-.1,1.1.2,1.2.7.1.5-.2,1.1-.7,1.2-10.2,2.8-20.7,2.8-21.2,2.8Z" fill="#202e42"/>
  <path d="M404.9,472.4c-10.1,0-22.1-1-27.6-5.3-.1-.1-1.5-1.1-1.1-2.6.4-1.5,2.4-2.4,6.3-3,.5,0,1,.3,1.1.8,0,.5-.3,1-.8,1.1-4.3.6-4.6,1.5-4.6,1.5,0,0,.2.4.4.5,9.7,7.5,42.7,4.1,43,4.1.5,0,1,.3,1.1.9,0,.5-.3,1-.9,1.1-.6,0-8,.8-16.7.8Z" fill="#202e42"/>
  <path d="M430.7,469.2c-.4,0-.8-.3-.9-.7-.2-.5.1-1.1.7-1.2,5.9-1.7,14.3-5.3,14.3-7.8,0-.9-1.5-1.9-4.1-2.8-.5-.2-.8-.7-.6-1.2.2-.5.7-.8,1.2-.6,3.7,1.2,5.5,2.7,5.5,4.7,0,4.8-13.1,8.8-15.7,9.6,0,0-.2,0-.3,0Z" fill="#202e42"/>
</svg>