<svg width="100" height="100" viewBox="0 0 100 100" xmlns="http://www.w3.org/2000/svg" fill="none">
    <!-- Sprout -->
    <path d="M50 75 C55 55, 70 55, 75 75" stroke="#228B22" stroke-width="3" fill="none"/>
    <circle cx="50" cy="80" r="2" fill="#228B22"/>
    <path d="M50 75 C45 55, 30 55, 25 75" stroke="#228B22" stroke-width="3" fill="none"/>

    <!-- Goat -->
    <path d="M20 30 C30 20, 50 20, 60 30" stroke="#8B5A2B" stroke-width="3" fill="none"/>
    <circle cx="40" cy="40" r="5" fill="#8B5A2B"/>
    <path d="M40 45 C38 55, 42 55, 40 65" stroke="#8B5A2B" stroke-width="2"/>
    <path d="M35 45 C33 55, 37 55, 35 65" stroke="#8B5A2B" stroke-width="2"/>

    <!-- Wheat -->
    <path d="M80 50 L80 70" stroke="#DAA520" stroke-width="2"/>
    <path d="M78 52 L82 55" stroke="#DAA520" stroke-width="2"/>
    <path d="M78 57 L82 60" stroke="#DAA520" stroke-width="2"/>
    <path d="M78 62 L82 65" stroke="#DAA520" stroke-width="2"/>

    <!-- Vines -->
    <path d="M10 90 C20 80, 30 80, 40 90" stroke="#228B22" stroke-width="2" fill="none"/>
    <path d="M15 88 C22 78, 28 78, 35 88" stroke="#228B22" stroke-width="2" fill="none"/>
</svg>
