<svg width="60" height="60" viewBox="0 0 60 60" xmlns="http://www.w3.org/2000/svg">
    <path d="M54.627 0l.83.828-1.415 1.415L51.8 0h2.827zM5.373 0l-.83.828L5.96 2.243 8.2 0H5.374zM48.97 0l3.657 3.657-1.414 1.414L46.143 0h2.828zM11.03 0L7.372 3.657 8.787 5.07 13.857 0H11.03zm32.284 0L49.8 6.485 48.384 7.9l-7.9-7.9h2.83zM16.686 0L10.2 6.485 11.616 7.9l7.9-7.9h-2.83zM22.343 0L13.857 8.485 15.272 9.9l8.485-8.485h-1.414zM32 0l-9.9 9.9 1.415 1.415L33.414 0H32zM0 0c0 .528.792.97 1.757 1.285v-.557c-.994-.305-1.757-.247-1.757-.728 0 .287.178.794.876 1.314.55.4 1.4.764 1.4 1.286v-.554c-.224-.036-.418-.092-.58-.16-.63-.27-.933-.779-.696-1.286-.464.32-.868 1.092-.868 1.286 0 .594 1.062 1.19 2.658 1.666.786.234 1.39.432 1.39.783 0 .38-.695.783-2.01 1.115V5.12c1.382-.356 2.067-.575 2.01-1.115 0-.208-.172-.482-.516-.773-.172-.145-.516-.436-.516-.773 0-.337.172-.61.516-.795.344-.185.516-.424.516-.773 0-.325-.26-.65-.516-.795-.172-.145-.516-.436-.516-.773 0-.337.172-.61.516-.795C4.346.385 4.518.146 4.518 0H0zm8.282 0h-.844a3.996 3.996 0 0 1-.243.666 4.01 4.01 0 0 0-.243.334h.112c.442-.17.93-.295 1.446-.375-.354-.12-.662-.317-.928-.58a1.182 1.182 0 0 1-.243-.334 1.18 1.18 0 0 0-.243-.666h-.112c-.442.17-.93.295-1.446.375.354.12.662.317.928.58.27.262.45.58.542.943.09.362.172.725.242 1.087.07.363.172.725.242 1.087.09.362.27.68.542.943.266.262.574.46.928.58.516-.08 1.004-.206 1.446-.376h-.112a4.008 4.008 0 0 0-.242-.666 4.01 4.01 0 0 1-.243-.334h-.112c-.442.17-.93.295-1.446.375.354-.12.662-.317.928-.58.27-.262.45-.58.542-.943.09-.362.172-.725.242-1.087.07-.363.172-.725.242-1.087.09-.362.27-.68.542-.943zM0 4.82v1.286c.068-.066.14-.124.214-.174.528-.356 1.18-.532 1.18-.888 0-.287-.178-.794-.876-1.314-.55-.4-1.4-.764-1.4-1.286v.554c.224.036.418.092.58.16.63.27.933.779.696 1.286.464-.32.868-1.092.868-1.286 0-.594-1.062-1.19-2.658-1.666-.786-.234-1.39-.432-1.39-.783 0-.38.695-.783 2.01-1.115v.554c-1.382.356-2.067.575-2.01 1.115 0 .208.172.482.516.773.172.145.516.436.516.773 0 .337-.172.61-.516.795-.344.185-.516.424-.516.773 0 .325.26.65.516.795.172.145.516.436.516.773 0 .337-.172.61-.516.795z" fill="#22C55E" fill-opacity="1" fill-rule="evenodd"/>
</svg>